/* XPM */
static char *_8a3ae62e7674ee4ba1b56158491e0c5eXqNd42FXVUdZAyM[] = {
/* columns rows colors chars-per-pixel */
"32 32 7 1 ",
"  c None",
". c black",
"X c #4A4747",
"o c red",
"O c #916A6A",
"+ c gray77",
"@ c white",
/* pixels */
"                                ",
"                                ",
"                                ",
"                                ",
"                                ",
"                                ",
"                                ",
"             @@@@@@@@@@         ",
"            @@++++++++@@        ",
"           @@++++OOO+++@@       ",
"          @@+++OOOOOO+++@       ",
"        oo@@++OOOOOOOO++@@      ",
"        oX.XX+OO.OOO.OO++@      ",
"        oo..XXOOOOOOOOO++@@oo   ",
"         oX...XXXXXXXXXXX..Xoo  ",
"         oXXX.XXXXXXXXXXX.XXXo  ",
"         oXXX..XXXX.......XXoo  ",
"         oo.................o   ",
"          oXXXX..XXXXXXXXoooo   ",
"          oXX..X..XXXXXXo       ",
"          oX..XXX..XXXXXo       ",
"          o..XXX.X..XXX..oo     ",
"          o.XXXX.XX..X..XXoo    ",
"          ooXXXX.XXX...XX.Xoo   ",
"           ooXX..XXXXXXX..XXo   ",
"            ooX.XXXXXXXX.XXXo   ",
"             oo..XXXXXXX.XXXo   ",
"              oo.........XXoo   ",
"               ooooXXXXooooo    ",
"                  oooooo        ",
"                                ",
"                                "
};
