/* XPM */
static char *f2f8489331f84ade9217e345ada15a19rT55JpCrTXNDx9KA[] = {
/* columns rows colors chars-per-pixel */
"32 32 9 1 ",
"  c None",
". c black",
"X c #292529",
"o c #005E30",
"O c #5BFA1D",
"+ c #76FF03",
"@ c #36F341",
"# c gray74",
"$ c white",
/* pixels */
"                                ",
"                                ",
"             XXXXXX             ",
"           XX$$$$$$XX           ",
"          X#$$$$$$$$$X          ",
"         X#$$$$$$$$$$X          ",
"         X$$$$$$$$$$$$X         ",
"        X#$$$$$$$$$$$$X         ",
"        X$$$$$$$$$$$$$X         ",
"        X$$$$$$o.$$$o..         ",
"        X#X$$$o@O$$$.O.         ",
"         X$X$$.OO$$$$+.         ",
"         X#X$$.$+$$X$$X         ",
"          X#$$$$$$$$$#X         ",
"           X#$$$$$$$$X          ",
"            .XX$$$$XX           ",
"               X..X             ",
"             XX$$$#X            ",
"            X$$$$$$#X           ",
"           X$#$$$$$#X           ",
"           X$X$$$$$##X          ",
"          X$#X$$$$$X#X          ",
"          X$XX$$$$$.#X          ",
"           XXX$$$$$XX           ",
"             X$$$##X            ",
"             X$$# $X            ",
"             X$$#$$X            ",
"             X$$# $X            ",
"              .. ..             ",
"                                ",
"                                ",
"                                "
};
