/* XPM */
static char *eac9d87f6bed4581e43f199e51b215253892E8BDfUSxzRSI[] = {
/* columns rows colors chars-per-pixel */
"32 32 6 1 ",
"  c None",
". c #5D2C28",
"X c #37474F",
"o c #8A4836",
"O c #BF6F4A",
"+ c #E69C69",
/* pixels */
"                                ",
"       XXXXXXXXXXXXXXXXX        ",
"       XoooooooooooooooX        ",
"       XoooooooooooooooX        ",
"       XoooooooooooooooX        ",
"       Xooo.........+ooX        ",
"       Xooo.OO.OO.OO+ooX        ",
"       Xooo.OO.OO.OO+o+X        ",
"       Xooo.OO.OO.OO+o.X        ",
"       Xooo.OO.OO.OO+o.X        ",
"       Xooo.OO.OO.OO+o.X        ",
"       Xooo.OO.OO.OO+ooX        ",
"       Xooo.OO.OO.OO+ooX        ",
"       Xooo.+++++++++ooX        ",
"       XoooooooooooooooX        ",
"       XoooooooooooooooX        ",
"       XoooooooooooooooX        ",
"       XoooooooooooooooX        ",
"       Xooo.........+ooX        ",
"       Xooo.OO.OO.OO+ooX        ",
"       Xooo.OO.OO.OO+o+X        ",
"       Xooo.OO.OO.OO+o.X        ",
"       Xooo.OO.OO.OO+o.X        ",
"       Xooo.OO.OO.OO+o.X        ",
"       Xooo.OO.OO.OO+ooX        ",
"       Xooo.OO.OO.OO+ooX        ",
"       Xooo.+++++++++ooX        ",
"       XoooooooooooooooX        ",
"       XoooooooooooooooX        ",
"       XXXXXXXXXXXXXXXXX        ",
"                                ",
"                                "
};
