/* XPM */
static char *c589a5dd603e4831a289742a2df0225cJtGsqVSjFe3wNVRF[] = {
/* columns rows colors chars-per-pixel */
"32 32 14 1 ",
"  c None",
". c #323800",
"X c #3B4200",
"o c #637000",
"O c #FF9800",
"+ c #D1B900",
"@ c #FF8E24",
"# c #ABC200",
"$ c #E0D900",
"% c #FFF700",
"& c #CDDC39",
"* c #FFEB3B",
"= c #FFEA63",
"- c white",
/* pixels */
"                                ",
"                                ",
"                                ",
"                                ",
"                                ",
"                                ",
"                                ",
"                                ",
"                                ",
"                                ",
"                  XX            ",
"               XXX%%X           ",
"            XXX%-===%X          ",
"         XXX%--======%X         ",
"        X$---======oooo.        ",
"        X-$=====ooo&&&&.        ",
"        X-=$=ooo&&&&&OO.        ",
"        X==*#&&&&&OOOO@.        ",
"        X++*#&&&OOO@...         ",
"         X++#OOOO...            ",
"          X+#@...               ",
"           X..                  ",
"                                ",
"                                ",
"                                ",
"                                ",
"                                ",
"                                ",
"                                ",
"                                ",
"                                ",
"                                "
};
