/* XPM */
static char *ff4601b762924fafb3498662c2700e13RyqZfmxok4HGNqOL[] = {
/* columns rows colors chars-per-pixel */
"32 32 3 1 ",
"  c #4A5462",
". c #6D758D",
"X c #8B93AF",
/* pixels */
"                                ",
" ........ ................. ... ",
"                                ",
" . XXXXXXXXXXXXXXX. .XXXXXXXXXX ",
" . ................ ........... ",
"                                ",
" XXXXXXXXXXXX. .XXXXXXXXXXXX. . ",
" ............. .............. . ",
"                                ",
" XXXXX. .XXXXXXXXXXXX. .XXXXXXX ",
" ...... .............. ........ ",
"                                ",
" XXXXXXXXXXX.. XXXXXXXXXXXXX. . ",
" ............. .............. . ",
"                                ",
" XXX. .XXXXXXXXXXXX .XXXXXXXXXX ",
" .... ............. ........... ",
"                                ",
" XXXXXXXX. .XXXXXXXXXXX ....... ",
" ......... ............ .XXXXXX ",
"                                ",
" X. .XXXXXXXXXXX .XXXXXXXXXX .X ",
" .. ............ ........... .. ",
"                                ",
" XXXXXXXXXX. XXXXXXXXX. XXXXXXX ",
" ........... .......... ....... ",
"                                ",
"  XXXXXXXXXXX. XXXXXXXXX. .XXXX ",
"  ............ .......... ..... ",
"                                ",
" XXX. XXXXXXXXXXXX. .XXXXXXXXXX ",
"                                "
};
