/* XPM */
static char *c7bc1d495d3247d3bb6795d422920679taIpTFKdBNaiBspk[] = {
/* columns rows colors chars-per-pixel */
"32 32 4 1 ",
"  c #313131",
". c #353535",
"X c gray25",
"o c gray34",
/* pixels */
"XXXXX. ....XXX.        .XXXXXXXX",
"XXXX.      ...  ooooooo .XXXXXXX",
"XXXX. ooooo    oXXXXXXXo .XXXXXX",
".... oXXXXXoo. ....XXXXXo .XXX..",
"     ....XXX.      .XXXXX ....  ",
"ooo.     .X.  oooo  .XXXX      o",
"XX.   oo  . ooXXXXo  .... oooooX",
"X.  ooXXo  oXXXXXXXo       .XXXX",
".  oXXXXXo  XXXXXXXX oooooo .XXX",
"  oXXXXXXXo ...XXXXX oXXXXXo .XX",
"o oXXXXXXXX    .XXXX  oXXXXXo ..",
"o  XXXXXXXX oo  .XXX  oXXXXXX   ",
"o.  XXXXXXX XXoo .XX o .XXXX  oX",
"o o XXXXXXX XXXo  .. o  XXXX oXX",
". X XXXXXX. XXXXo   oXo XXXX XXX",
"  X ..XXXX  XXXXX  oXXX XXX. .XX",
" oXX  .... XXXXXX oXXXX .X. .XXo",
" XXXoo     XXXXX. oXXXX  . ...Xo",
" XXXXXo XXXXXXX.  oXXXX   X   ..",
"  XXXXX .XXX...  oXXXX. o  ooo  ",
"o XXXXX  ...    oXX...  Xo XXXo ",
"o .XXXXX.   ooo ...   ooXX XXXXo",
"Xo ..XX. oooXXo     ooXXXX XXXXX",
"XXo  ..  XXXXXXoooo oXXXXX   XXX",
"XXXo   o  XXXXXXXX. XXXXX. oo XX",
"XXX oooXo ..XXXXX.  XXXX.  oXo X",
"XXX XXXXXX  .....  XXXX.  oXXXo ",
"     .XXXXX       XXXX.  oXXX. o",
"oooo  ..XX..   o  ....  oXXX. oX",
"XXXXo   ..    oXo      oXXX. oXX",
"XXXXXoo    XX XXXX  XXXXXX. oXXX",
"XXX XXXXXXXXX XXXXX  XXXXX XXXXX"
};
